<?xml version="1.0" standalone="no"?>
<!DOCTYPE svg PUBLIC "-//W3C//DTD SVG 20010904//EN"
 "http://www.w3.org/TR/2001/REC-SVG-20010904/DTD/svg10.dtd">
<svg version="1.0" xmlns="http://www.w3.org/2000/svg"
 width="500.000000pt" height="500.000000pt" viewBox="0 0 500.000000 500.000000"
 preserveAspectRatio="xMidYMid meet">

<g transform="translate(0.000000,500.000000) scale(0.100000,-0.100000)"
fill="#000000" stroke="none">
<path d="M969 4387 c-53 -35 -71 172 152 -1712 236 -1993 215 -1827 231 -1858
17 -33 70 -57 126 -57 29 0 348 29 710 65 748 73 870 85 899 85 18 0 22 -8 28
-56 6 -52 8 -55 33 -52 23 3 28 11 44 64 12 43 24 63 37 67 10 2 27 16 36 30
15 24 16 38 5 156 -16 171 -9 424 15 516 10 39 21 74 25 78 9 10 86 -157 165
-358 57 -144 104 -286 149 -447 14 -50 20 -58 40 -58 46 0 51 19 51 214 0 212
-15 300 -76 438 -39 89 -72 198 -84 281 l-7 45 -75 22 c-90 27 -149 23 -238
-14 -43 -18 -79 -26 -124 -26 l-63 0 6 -197 c7 -181 12 -279 32 -539 l7 -91
-84 -7 c-46 -4 -109 -11 -139 -16 -49 -9 -359 -40 -1107 -111 -122 -12 -233
-19 -247 -15 -36 9 -62 55 -69 124 -9 77 -26 224 -91 767 -49 407 -61 503 -81
645 -3 19 -9 49 -15 65 -7 24 -8 17 -5 -30 4 -57 2 -56 -12 5 -5 23 -6 24 -14
5 -5 -14 -7 -4 -5 28 2 26 -2 65 -9 85 -12 33 -26 149 -30 242 -1 19 -5 42 -8
50 -3 8 -10 56 -16 105 -12 111 -149 1255 -160 1345 -9 69 -1 105 27 126 32
25 -21 16 -59 -9z m268 -2049 c-3 -8 -6 -5 -6 6 -1 11 2 17 5 13 3 -3 4 -12 1
-19z m20 -50 c-3 -7 -5 -2 -5 12 0 14 2 19 5 13 2 -7 2 -19 0 -25z m-10 -50
c-3 -8 -6 -5 -6 6 -1 11 2 17 5 13 3 -3 4 -12 1 -19z m20 -30 c-3 -8 -6 -5 -6
6 -1 11 2 17 5 13 3 -3 4 -12 1 -19z"/>
<path d="M1655 4317 c-14 -46 -25 -88 -25 -95 0 -9 61 -12 243 -12 133 0 395
-3 581 -7 l339 -6 30 -27 29 -26 56 -466 56 -466 -32 -31 c-38 -38 -56 -100
-48 -159 10 -74 19 -81 55 -45 36 36 39 53 12 53 -23 0 -36 43 -25 84 9 38 49
36 69 -5 9 -17 14 -36 12 -42 -2 -7 3 -24 11 -39 19 -32 76 -53 167 -62 81 -7
196 -39 238 -65 95 -59 174 -184 203 -322 18 -86 12 -150 -20 -213 l-23 -45
36 -15 c94 -39 132 -33 207 35 65 59 77 58 144 -6 75 -71 118 -82 190 -45 160
82 267 302 239 495 -12 85 -43 149 -99 205 -100 101 -216 118 -319 47 -81 -56
-108 -50 -170 41 -61 89 -86 107 -142 103 -9 0 -38 -18 -65 -40 -63 -49 -115
-76 -191 -95 -130 -34 -196 -11 -282 97 -38 47 -63 70 -83 74 -15 3 -28 6 -28
7 -3 16 -79 625 -104 822 -18 149 -39 280 -46 291 -29 46 -35 47 -435 54 -209
4 -464 8 -567 8 l-187 1 -26 -83z m335 -2 c17 -20 5 -45 -20 -45 -23 0 -35 22
-26 45 7 19 30 19 46 0z"/>
<path d="M1858 3913 c6 -2 18 -2 25 0 6 3 1 5 -13 5 -14 0 -19 -2 -12 -5z"/>
<path d="M1749 3899 c-104 -24 -196 -85 -229 -150 -27 -53 -26 -99 15 -391 41
-292 56 -337 163 -469 87 -108 274 -258 406 -326 71 -36 139 -24 210 38 81 70
130 118 124 124 -3 3 -25 -13 -49 -36 -102 -97 -128 -114 -183 -115 -28 -1
-53 1 -56 5 -13 17 -62 41 -72 35 -6 -4 -8 -3 -5 3 4 6 -11 22 -33 37 -43 28
-55 32 -44 14 4 -7 3 -8 -5 -4 -6 4 -9 11 -6 16 6 10 -56 50 -79 50 -10 0 -14
5 -11 10 3 6 1 10 -4 10 -6 0 -11 7 -11 15 0 8 -5 15 -11 15 -5 0 -7 -6 -3
-12 5 -9 3 -9 -9 1 -9 7 -15 17 -12 21 4 7 -48 63 -59 61 -20 -2 -43 21 -95
99 -57 85 -83 149 -95 235 -60 422 -67 484 -56 524 21 81 112 152 237 186 53
15 30 18 -28 4z m71 -1084 c13 -14 21 -25 18 -25 -8 0 -48 36 -48 44 0 10 6 7
30 -19z m140 -120 c11 -13 10 -14 -4 -9 -9 3 -16 10 -16 15 0 13 6 11 20 -6z"/>
<path d="M1865 3880 c-83 -15 -135 -32 -128 -43 3 -6 1 -7 -5 -3 -20 12 -76
-20 -119 -67 -39 -42 -43 -51 -42 -94 1 -27 5 -59 9 -73 8 -24 8 -23 9 8 1 39
21 34 21 -6 0 -20 3 -23 9 -13 6 9 6 22 0 32 -12 23 -12 32 0 24 6 -3 14 3 20
12 6 10 11 13 11 6 0 -6 -4 -15 -10 -18 -5 -3 -10 -11 -10 -16 0 -6 4 -7 10
-4 11 7 24 -39 17 -60 -4 -8 -1 -17 4 -21 6 -3 8 -19 5 -35 -3 -15 -2 -29 2
-31 4 -2 19 -85 33 -185 21 -148 31 -192 55 -239 42 -84 193 -232 327 -322 59
-40 111 -72 115 -72 15 0 162 132 162 144 0 8 -6 18 -13 25 -10 8 -23 1 -53
-30 -21 -22 -56 -54 -76 -71 l-38 -29 -92 62 c-122 82 -276 236 -310 309 -22
45 -33 105 -62 315 -42 297 -43 289 48 331 71 33 140 44 263 44 116 0 221 -20
299 -56 94 -44 93 -41 130 -325 36 -271 36 -297 -7 -382 -20 -39 -20 -41 -3
-54 15 -11 20 -9 35 16 28 47 49 118 49 169 0 67 -57 498 -69 520 -22 41 -121
112 -157 112 -8 0 -13 4 -10 9 3 5 -4 9 -17 8 -12 0 -51 5 -87 11 -36 7 -86
12 -112 12 -27 0 -48 4 -48 9 0 5 -12 12 -27 16 l-28 8 30 12 c28 12 31 12 37
-8 5 -20 6 -19 7 5 1 30 16 45 27 27 4 -8 3 -9 -4 -5 -8 5 -12 -1 -12 -16 l0
-22 15 21 c13 18 20 20 46 13 18 -5 36 -7 41 -4 15 10 -2 24 -30 25 -15 0 -70
2 -122 4 -52 2 -117 -1 -145 -5z m138 -69 c4 -4 -16 -8 -45 -8 -49 -1 -50 0
-27 13 23 12 55 10 72 -5z m-224 -15 c9 -10 8 -16 -4 -26 -13 -11 -14 -10 -9
5 4 10 1 21 -7 26 -8 5 -9 9 -3 9 6 0 17 -6 23 -14z m-98 -29 c-10 -9 -11 -8
-5 6 3 10 9 15 12 12 3 -3 0 -11 -7 -18z m76 17 c-3 -3 -12 -4 -19 -1 -8 3 -5
6 6 6 11 1 17 -2 13 -5z m-87 -38 c0 -3 -4 -8 -10 -11 -5 -3 -10 -1 -10 4 0 6
5 11 10 11 6 0 10 -2 10 -4z m-30 -26 c0 -5 -2 -10 -4 -10 -3 0 -8 5 -11 10
-3 6 -1 10 4 10 6 0 11 -4 11 -10z m60 6 c0 -2 -6 -9 -14 -15 -11 -9 -16 -9
-22 0 -4 7 -3 9 4 5 6 -3 13 -2 17 4 6 10 15 14 15 6z m-66 -34 c3 -5 -1 -9
-9 -9 -8 0 -15 4 -15 9 0 4 4 8 9 8 6 0 12 -4 15 -8z"/>
<path d="M2322 3824 c10 -10 20 -16 22 -13 3 3 -5 11 -17 18 -21 13 -21 12 -5
-5z"/>
<path d="M2228 3823 c7 -3 16 -2 19 1 4 3 -2 6 -13 5 -11 0 -14 -3 -6 -6z"/>
<path d="M1641 3603 c-1 -6 -4 -20 -7 -30 -5 -17 -5 -17 6 0 6 10 9 23 6 30
-3 9 -5 9 -5 0z"/>
<path d="M1611 3544 c0 -11 3 -14 6 -6 3 7 2 16 -1 19 -3 4 -6 -2 -5 -13z"/>
<path d="M1641 3524 c0 -11 3 -14 6 -6 3 7 2 16 -1 19 -3 4 -6 -2 -5 -13z"/>
<path d="M2593 2979 c-7 -18 -11 -35 -8 -37 6 -6 27 48 23 60 -2 5 -9 -6 -15
-23z"/>
<path d="M2566 2913 c-6 -14 -5 -15 5 -6 7 7 10 15 7 18 -3 3 -9 -2 -12 -12z"/>
<path d="M1211 2744 c0 -11 3 -14 6 -6 3 7 2 16 -1 19 -3 4 -6 -2 -5 -13z"/>
<path d="M1228 2705 c-3 -14 -1 -25 3 -25 5 0 9 11 9 25 0 14 -2 25 -4 25 -2
0 -6 -11 -8 -25z"/>
<path d="M1210 2655 c0 -8 7 -15 15 -15 9 0 15 -10 16 -22 0 -13 3 -17 6 -10
6 16 -16 62 -29 62 -4 0 -8 -7 -8 -15z"/>
<path d="M2740 2658 c0 -4 -18 -8 -40 -8 -33 0 -40 -3 -40 -19 0 -21 128 -402
139 -413 7 -8 301 -42 307 -35 2 2 -5 33 -16 68 -11 35 -20 65 -20 66 0 1 10
3 22 5 21 3 20 5 -14 38 -29 29 -42 56 -73 158 l-39 122 -57 0 c-37 0 -59 4
-61 13 -5 13 -108 19 -108 5z"/>
<path d="M1216 2605 c-3 -9 -6 -22 -5 -28 0 -7 5 -1 10 12 5 13 8 26 5 28 -2
2 -6 -3 -10 -12z"/>
<path d="M1246 2528 c6 -69 13 -74 12 -9 -1 29 -5 54 -9 57 -4 2 -6 -19 -3
-48z"/>
<path d="M3377 2540 c10 -17 19 -26 21 -21 5 14 -17 51 -29 51 -6 0 -2 -14 8
-30z"/>
<path d="M1221 2544 c0 -11 3 -14 6 -6 3 7 2 16 -1 19 -3 4 -6 -2 -5 -13z"/>
<path d="M3685 791 c-3 -6 -11 -9 -16 -6 -5 4 -9 -6 -9 -21 0 -15 -10 -38 -22
-51 -26 -28 -22 -33 19 -21 27 7 34 15 43 49 11 41 1 75 -15 50z"/>
<path d="M3092 746 c-12 -7 -19 -15 -15 -20 4 -4 1 -4 -8 -1 -8 3 -23 -2 -34
-11 -11 -8 -15 -13 -8 -9 7 3 37 6 68 6 30 1 52 5 49 10 -3 5 2 6 10 3 17 -6
21 4 8 21 -10 15 -43 16 -70 1z"/>
</g>
</svg>
